<?xml version="1.0" encoding="utf-8"?>
<!-- Generator: Adobe Illustrator 27.9.0, SVG Export Plug-In . SVG Version: 6.00 Build 0)  -->
<svg version="1.1" id="レイヤー_1" xmlns="http://www.w3.org/2000/svg" xmlns:xlink="http://www.w3.org/1999/xlink" x="0px"
	 y="0px" viewBox="0 0 713.67 132.92" style="enable-background:new 0 0 713.67 132.92;" xml:space="preserve">
<style type="text/css">
	.st0{fill:#C34022;}
</style>
<g>
	<path class="st0" d="M41.76,29.34c-0.51-2-0.49-4.12,0.2-6.01c1.56-4.28,6.06-5.7,9.87-3.2l1.05,0.69l0.48-1.28
		c1.59-4.28,5.99-5.71,9.81-3.16c3.78,2.53,5.51,8.05,3.93,12.31c0,0-2.6,7.59-8.46,16.82c0.68-5.19-7.63-7.83-10.43-9.36
		C44.34,34.04,42.59,32.54,41.76,29.34z M113.26,53.96c-3.25-6.82-14-13.58-26.18-11.69c-6.88,1.07-11.36,4.62-15.94,7.78
		c-6.67,4.6-12.42,10.39-20.49,11.05l-1.32,0.11c-8.06,0.66-17.6-2.43-22.97-8.47c-4.34-4.88-6.51-10.31-7.07-15.68c0,0,0,0,0,0
		c-6.16,9.13-6.69,21.87,1.41,32.36c4.83,6.25,13.95,9.8,21.85,9.82c8.56,0.02,13.58-2.74,17.97-6.87c-0.04,0.4-0.07,0.82-0.08,1.25
		c-0.65,14.92-13.27,26.49-28.2,25.84c-1.97-0.09-3.87-0.38-5.7-0.86c4.66,6.6,12.22,11.05,20.91,11.42
		c8.33,0.36,15.94-3.08,21.15-8.79c0,0,0,0,0,0c1.34,7.29,6.77,13.52,14.43,15.49c9.13,2.36,18.42-2.1,22.49-10.2c0,0,0,0,0,0
		c-3.87,1.66-8.29,2.11-12.68,0.97c-6.37-1.65-12.58-6.44-15.42-12.52c-1.06-2.26-1.37-4.91-1.59-7.92
		c-0.03-0.48-0.17-3.88-0.17-4.39c0-0.01-0.02-0.31-0.01-0.57c0.34-14.36-5.51-19.34-5.51-19.34c2.9-2.5,4.35-2.69,8.26-3.76
		c11.84-3.24,24.57,2.06,30.62,12.74c1.82,3.21,2.87,6.56,3.31,9.91C117.4,73.73,117.82,63.51,113.26,53.96z"/>
	<path class="st0" d="M172.85,100.74H149.8v-3.13c2.34,0,4.16-0.65,5.47-1.95c1.04-1.04,1.56-2.6,1.56-4.69V38.63
		c0-3.12-0.52-5.21-1.56-6.25c-1.04-1.04-2.87-1.56-5.47-1.56v-2.73c3.38,0,6.12-0.26,8.2-0.78c2.08-0.52,4.82-1.56,8.2-3.13v36.72
		c3.91-7.29,8.72-10.94,14.45-10.94c4.16,0,7.55,1.31,10.16,3.91c2.86,2.87,4.3,8.2,4.3,16.02v21.09c0,2.09,0.52,3.65,1.56,4.69
		c1.3,1.31,2.99,1.95,5.08,1.95v3.13H178.7v-3.13c2.34,0,4.16-0.65,5.47-1.95c1.04-1.04,1.56-2.6,1.56-4.69V67.14
		c0-7.29-2.61-10.94-7.81-10.94c-2.09,0-4.17,1.04-6.25,3.13c-2.87,2.87-4.69,7.03-5.47,12.5v19.53c0,2.09,0.52,3.65,1.56,4.69
		c1.04,1.04,2.21,1.56,3.52,1.56h1.56V100.74z M251.46,86.28c-2.34,4.95-4.69,8.59-7.03,10.94c-3.13,3.12-7.03,4.69-11.72,4.69
		c-4.95,0-9.12-1.7-12.5-5.08c-5.99-5.99-8.2-15.24-6.64-27.73c1.04-5.99,3.52-10.94,7.42-14.84c3.13-3.12,7.03-4.69,11.72-4.69
		c4.69,0,8.59,1.56,11.72,4.69c3.91,3.91,6.25,10.94,7.03,21.09h-27.34c0,4.43,0.26,7.81,0.78,10.16
		c1.82,7.81,5.33,11.72,10.55,11.72c5.21,0,9.63-4.3,13.28-12.89L251.46,86.28z M240.52,72.22c0-5.47-0.53-9.89-1.56-13.28
		c-1.31-4.16-3.39-6.25-6.25-6.25c-2.87,0-4.95,2.09-6.25,6.25c-1.31,4.43-2.09,8.86-2.34,13.28H240.52z M309.02,87.46
		c-0.78,7.03-3,11.46-6.64,13.28c-2.09,1.04-4.17,1.17-6.25,0.39c-2.09-0.78-3.39-2.47-3.91-5.08c-2.87,2.87-6.51,4.3-10.94,4.3
		c-4.95,0-8.73-1.3-11.33-3.91c-2.34-2.34-3.52-5.21-3.52-8.59c0-3.91,1.69-7.55,5.08-10.94c3.91-3.91,10.8-6.12,20.7-6.64v-4.69
		c0-4.94-0.92-8.33-2.73-10.16c-1.82-1.82-4.17-2.73-7.03-2.73c-3.39,0-5.73,1.04-7.03,3.12c1.04,0.52,1.82,1.04,2.34,1.56
		c1.3,1.31,1.95,3,1.95,5.08c0,1.83-0.52,3.26-1.56,4.3c-1.31,1.31-2.73,1.95-4.3,1.95c-1.56,0-2.87-0.52-3.91-1.56
		c-1.31-1.3-1.95-3.13-1.95-5.47c0-2.6,1.3-5.21,3.91-7.81c2.86-2.86,7.03-4.3,12.5-4.3c5.72,0,10.02,1.43,12.89,4.3
		c2.86,2.87,4.3,6.9,4.3,12.11v26.95c0,1.31,0.52,1.95,1.56,1.95c1.56,0,2.6-2.34,3.13-7.03L309.02,87.46z M292.22,73.39
		c-5.21,0.26-9.25,1.82-12.11,4.69c-2.61,2.61-3.91,5.73-3.91,9.37c0,2.87,0.91,5.21,2.73,7.03c1.56,1.56,3.38,2.34,5.47,2.34
		c2.6,0,5.21-1.43,7.81-4.3V73.39z M343.58,100.74h-23.83V98c2.6,0,4.42-0.52,5.47-1.56c1.04-1.04,1.56-2.6,1.56-4.69V59.72
		c0-4.16-2.34-6.25-7.03-6.25v-2.34c5.47,0,10.94-0.78,16.41-2.34V60.5c2.6-4.69,5.33-7.81,8.2-9.37c2.86-1.56,5.47-1.69,7.81-0.39
		c2.34,1.31,3.52,3.65,3.52,7.03c0,2.34-0.65,4.17-1.95,5.47c-1.04,1.04-2.34,1.56-3.91,1.56c-1.56,0-2.87-0.52-3.91-1.56
		c-2.09-2.08-2.61-4.69-1.56-7.81c-2.34,1.56-4.43,3.91-6.25,7.03c-1.31,3.13-1.95,6.38-1.95,9.77v19.53c0,2.09,0.52,3.65,1.56,4.69
		c1.04,1.04,2.99,1.56,5.86,1.56V100.74z M374.63,54.25h-7.42v-4.3c5.21-1.3,8.72-4.16,10.55-8.59c1.3-2.86,2.08-6.38,2.34-10.55
		H384v19.53h11.72v3.91H384v33.99c0,2.61,0.52,4.56,1.56,5.86c1.04,1.31,2.47,1.7,4.3,1.17c1.82-0.52,3.25-2.21,4.3-5.08
		c0.78-2.08,1.3-5.21,1.56-9.38h2.73c-0.26,5.73-1.17,10.42-2.73,14.06c-1.56,3.65-4.17,5.86-7.81,6.64
		c-3.91,0.52-7.17-0.52-9.77-3.13c-2.34-2.34-3.52-5.6-3.52-9.77V54.25z M468.78,42.08c-1.29-1.83-3.18-2.43-5.6-2.38
		c-1.57,0.04-4.15,1.26-5.28,3.55c-0.94,1.91-0.91,5.07,0.07,6.66c1.82,2.98,2.61,4.96,1.02,6.13c-16.26,11.93-15.64,9.41-22,14.88
		c-4.36,3.75-4.21,9.77-1.8,12.52c2.41,2.74,3.19,3.02,4.61,3.56c2.15,0.82,5.34-0.08,6.64-2.14c1.89-3.01,1.61-5.04,0.94-6.5
		c-1.22-2.66-3.2-4.05-5.58-5.12c0.38-2.43,1.24-4.61,4.7-5.95c0.69,0.49,4,1.62,6.75,5.39c2.97,4.08,4.35,8.77,3.97,13.03
		c-0.26,2.95-0.23,8.45-8.8,12.69c-4.62,2.28-12.66,1.64-16.73-0.97c-4.38-2.8-5.73-5.14-7.17-9.61
		c-1.68-5.22-0.71-11.87,0.75-14.73c3.54-6.91,6.23-11.81,19.26-14.09l0-0.42c-3.34-0.35-6.27-1.72-9.05-4.21
		c-3.6-3.22-4.27-6.55-4.31-8.54c-0.09-4.77,1.15-7.06,2.45-9.12c1.13-1.79,2.66-3.12,4.63-3.82c3.89-1.4,6.53-0.72,8.37,0.64
		c0.8,0.59,1.34,1.25,1.43,1.79c-1.05,0.33-2.02,0.73-2.88,1.21c-3.25,1.82-4.95,5.89-3.92,9.63c0.13,0.48,0.31,0.92,0.55,1.3
		c0.95,1.52,4.06,4.43,9.12,2.08c3.08-1.43,4.3-4.97,4.03-8.45c-0.25-3.22-2.15-7.7-6.01-10.16c-3-2.05-8.44-3.26-14.99-1.34
		c-8.38,2.46-11.42,8.08-11.91,13.72c-0.68,7.87,3.74,11.53,13.89,15.5c-17.09,6.18-20.39,11.62-21.74,17.76
		c-0.93,4.19-2.4,11.83,3.3,18.47c7.78,9.06,19.22,8.83,25.05,8.76c4.16-0.05,11.01-2.02,14.64-4.18c4.18-2.49,9.55-9.31,9.2-17.68
		c-0.33-7.84-6.25-12.61-10.49-14.26c-2.1-0.82-3.4-1.55-6.3-2.29c12.84-8.03,17.24-11.06,19.42-14.19
		C471.23,47.99,469.93,43.7,468.78,42.08z M488.69,99.24l-1.56,0.39V34.79c0-2.34-0.65-4.16-1.95-5.47
		c-1.31-1.3-3.26-1.95-5.86-1.95v-2.73c4.16-0.26,9.89-1.3,17.19-3.13v32.81c2.34-2.6,4.55-4.43,6.64-5.47
		c2.86-1.56,5.73-2.08,8.59-1.56c2.86,0.52,5.6,2.09,8.2,4.69c4.94,4.95,7.42,12.24,7.42,21.88c0,8.86-2.22,15.5-6.64,19.92
		c-2.61,2.61-5.34,4.3-8.2,5.08c-7.29,2.08-13.54-0.26-18.75-7.03L488.69,99.24z M496.5,82.83c0.26,4.95,1.56,8.34,3.91,10.16
		c2.86,2.34,5.86,2.73,8.98,1.17c2.08-1.04,3.77-3.52,5.08-7.42c1.04-3.12,1.56-7.81,1.56-14.06c0-5.99-0.52-10.55-1.56-13.67
		c-1.56-4.69-4.43-7.03-8.59-7.03c-1.31,0-2.48,0.26-3.52,0.78c-3.91,2.09-5.86,7.03-5.86,14.84V82.83z M564.56,100.02
		c-5.21,0-9.51-1.7-12.89-5.08c-5.47-5.47-8.2-12.5-8.2-21.09c0-8.85,2.73-16.02,8.2-21.48c3.38-3.38,7.68-5.08,12.89-5.08
		c5.21,0,9.5,1.7,12.89,5.08c5.47,5.47,8.2,12.63,8.2,21.48c0,8.59-2.73,15.62-8.2,21.09C574.07,98.32,569.77,100.02,564.56,100.02z
		 M554.41,73.85c0,10.68,1.56,17.58,4.69,20.7c1.82,1.82,3.64,2.73,5.47,2.73c1.82,0,3.64-0.91,5.47-2.73
		c3.13-3.13,4.69-10.02,4.69-20.7c0-10.67-1.56-17.58-4.69-20.7c-1.82-1.82-3.65-2.73-5.47-2.73c-1.83,0-3.65,0.92-5.47,2.73
		C555.97,56.27,554.41,63.17,554.41,73.85z M647.86,99.24l-16.41,1.56v-8.59c-2.34,3.91-4.82,6.38-7.42,7.42
		c-4.17,1.82-8.07,1.69-11.72-0.39c-3.65-2.08-6.38-5.33-8.2-9.77c-1.56-3.91-2.34-8.59-2.34-14.06c0-5.21,0.65-9.89,1.95-14.06
		c1.3-4.16,3.77-7.68,7.42-10.55c4.16-2.86,8.46-3.52,12.89-1.95c2.86,1.04,5.33,3.12,7.42,6.25V35.57c0-2.34-0.52-4.03-1.56-5.08
		c-1.04-1.04-2.61-1.56-4.69-1.56h-1.17V25.8c4.16-0.52,9.77-1.56,16.8-3.12v69.14c0,1.04,0.52,2.09,1.56,3.13
		c1.04,1.04,2.86,1.56,5.47,1.56V99.24z M631.45,67.99c0-6.25-1.04-10.41-3.13-12.5c-1.82-2.08-3.78-3.12-5.86-3.12
		c-2.09,0-3.91,0.78-5.47,2.34c-3.12,3.12-4.69,10.03-4.69,20.7c0,8.59,1.56,14.45,4.69,17.58c1.56,1.56,3.25,2.34,5.08,2.34
		c2.86,0,5.33-1.69,7.42-5.08c1.3-2.86,1.95-6.12,1.95-9.77V67.99z M685.06,48.07h17.97v2.73c-2.34,0-4.04,0.52-5.08,1.56
		c-1.31,1.31-3,4.3-5.08,8.98l-16.41,41.41c-2.34,5.47-5.21,8.2-8.59,8.2c-1.83,0-3.26-0.52-4.3-1.56
		c-1.56-1.56-2.34-3.39-2.34-5.47c0-1.83,0.52-3.26,1.56-4.3c0.78-0.78,1.95-1.17,3.52-1.17c1.3,0,2.34,0.39,3.13,1.17
		c1.04,1.04,1.56,2.34,1.56,3.91c0,1.56-0.39,2.73-1.17,3.52c1.56-0.26,3.64-3.78,6.25-10.55l-14.45-40.63
		c-1.04-3.12-3.39-4.82-7.03-5.08v-2.73h23.05v2.73c-4.69,0-6.38,2.22-5.08,6.64l8.98,25.39l8.59-21.87c1.3-4.16,1.3-6.9,0-8.2
		c-1.31-1.3-3-1.95-5.08-1.95V48.07z"/>
</g>
</svg>
