<?xml version="1.0" encoding="utf-8"?>
<!-- Generator: Adobe Illustrator 27.9.0, SVG Export Plug-In . SVG Version: 6.00 Build 0)  -->
<svg version="1.1" id="レイヤー_1" xmlns="http://www.w3.org/2000/svg" xmlns:xlink="http://www.w3.org/1999/xlink" x="0px"
	 y="0px" viewBox="0 0 550 150" style="enable-background:new 0 0 550 150;" xml:space="preserve">
<g>
	<path d="M34.75,116.7l5.42,9.11l8.93-5.32c2.13-1.27,3.89-1.76,5.29-1.48c1.39,0.28,2.49,1.08,3.27,2.41
		c0.77,1.29,0.95,2.62,0.53,3.98c-0.42,1.36-1.69,2.67-3.82,3.94l-19.16,11.41c-2.13,1.27-3.89,1.76-5.29,1.48
		c-1.39-0.28-2.49-1.08-3.27-2.4c-0.77-1.3-0.94-2.63-0.51-3.99c0.43-1.37,1.7-2.68,3.8-3.93l1.38-0.82L10.71,96.46l-1.38,0.82
		c-2.13,1.27-3.89,1.76-5.29,1.48c-1.39-0.28-2.49-1.08-3.27-2.4c-0.79-1.32-0.97-2.67-0.56-4.02s1.69-2.67,3.82-3.94L24.43,76.3
		c5.98-3.56,11.7-4.75,17.14-3.57c5.44,1.18,9.56,4.12,12.35,8.81c1.54,2.59,2.41,5.39,2.6,8.39c0.14,2.26-0.34,4.85-1.42,7.77
		c-1.08,2.93-2.46,5.46-4.13,7.6c-1.67,2.14-4.28,4.28-7.85,6.4L34.75,116.7z M29.48,107.85l8.2-4.88c3.86-2.3,6.39-4.99,7.61-8.07
		c1.22-3.08,1.1-5.85-0.35-8.3c-1.23-2.07-3.23-3.34-5.98-3.8c-2.75-0.46-5.83,0.31-9.22,2.34l-10.18,6.07L29.48,107.85z"/>
	<path d="M118.27,65.29c3.59,8.41,3.9,16.55,0.94,24.42s-7.95,13.3-14.97,16.3c-6.31,2.69-13,2.8-20.07,0.32
		c-8.74-3.08-15.07-9.21-18.98-18.39c-3.92-9.18-3.97-18-0.15-26.47c3.1-6.82,7.8-11.57,14.12-14.27c7.02-2.99,14.4-2.84,22.13,0.47
		C109,50.97,114.67,56.85,118.27,65.29z M108.8,69.33c-2.46-5.76-6.23-9.78-11.32-12.07c-5.09-2.29-9.85-2.49-14.29-0.59
		c-4.4,1.88-7.54,5.46-9.4,10.73c-1.86,5.27-1.58,10.77,0.87,16.5c2.44,5.73,6.21,9.74,11.3,12.03c5.09,2.29,9.84,2.49,14.24,0.61
		c4.44-1.89,7.59-5.46,9.47-10.7C111.54,80.59,111.25,75.09,108.8,69.33z"/>
	<path d="M143.35,65.42l3.44,12.49l3.58-0.99c2.39-0.66,4.22-0.67,5.49-0.03c1.27,0.64,2.11,1.7,2.52,3.19
		c0.4,1.45,0.22,2.78-0.55,3.98c-0.76,1.2-2.34,2.13-4.73,2.79L138.05,91c-2.39,0.66-4.22,0.67-5.49,0.03
		c-1.27-0.64-2.11-1.7-2.52-3.19c-0.4-1.45-0.21-2.78,0.57-3.99c0.78-1.2,2.35-2.13,4.7-2.78l1.55-0.43l-10.7-38.84l-1.55,0.43
		c-2.39,0.66-4.22,0.67-5.49,0.03c-1.27-0.64-2.11-1.7-2.52-3.19c-0.41-1.48-0.23-2.83,0.53-4.03c0.76-1.2,2.34-2.13,4.73-2.79
		l22.48-6.14c7.01-1.93,12.92-1.69,17.73,0.72c4.81,2.41,7.9,6.1,9.27,11.07c0.85,3.1,0.73,6.17-0.38,9.2
		c-1.11,3.03-3.22,6.04-6.32,9.01c2.6,1.26,5.5,3,8.68,5.22c1.99,1.43,4.78,3.75,8.38,6.97c2.52-0.69,4.25-0.89,5.2-0.6
		c1.73,0.6,2.84,1.8,3.34,3.61c0.4,1.45,0.23,2.78-0.52,3.97c-0.75,1.2-2.32,2.12-4.71,2.78l-5.67,1.56
		c-11.46-10.21-20.19-15.85-26.17-16.91L143.35,65.42z M140.62,55.49l7.75-2.13c2.87-0.79,5.32-1.93,7.34-3.43
		c2.71-2,4.42-3.79,5.11-5.37c0.69-1.58,0.87-3,0.52-4.26c-0.52-1.87-2-3.33-4.44-4.38c-2.44-1.05-5.58-1.04-9.43,0.02l-11.38,3.13
		L140.62,55.49z"/>
	<path d="M216.27,22.31l5.4,39.92l6.87-0.93c2.46-0.33,4.27-0.1,5.44,0.71c1.17,0.8,1.86,1.97,2.07,3.5
		c0.2,1.49-0.16,2.78-1.07,3.87c-0.92,1.09-2.6,1.8-5.06,2.13l-23.89,3.23c-2.46,0.33-4.27,0.1-5.44-0.71
		c-1.17-0.8-1.86-1.97-2.07-3.5c-0.2-1.49,0.16-2.78,1.07-3.87c0.92-1.09,2.6-1.8,5.06-2.13l6.82-0.92l-5.4-39.92l-11.05,1.5
		l1.31,9.66c0.33,2.46,0.1,4.27-0.71,5.44c-0.8,1.17-1.97,1.86-3.5,2.07c-1.49,0.2-2.78-0.16-3.87-1.07
		c-1.09-0.92-1.8-2.6-2.13-5.06l-2.69-19.91l52.87-7.1l2.69,19.86c0.33,2.46,0.1,4.27-0.71,5.44c-0.8,1.17-1.97,1.86-3.5,2.07
		c-1.49,0.2-2.78-0.16-3.87-1.07c-1.09-0.92-1.8-2.6-2.13-5.06l-1.31-9.66L216.27,22.31z"/>
	<path d="M269.79,43.8l0.25,15.07l10.55-0.17c2.48-0.04,4.25,0.41,5.32,1.35c1.07,0.94,1.62,2.18,1.64,3.72
		c0.02,1.51-0.48,2.75-1.52,3.72c-1.04,0.97-2.8,1.48-5.28,1.52l-22.45,0.36c-2.48,0.04-4.25-0.41-5.32-1.35
		c-1.07-0.94-1.62-2.18-1.64-3.72c-0.02-1.51,0.49-2.75,1.55-3.72c1.06-0.97,2.81-1.48,5.25-1.52l1.61-0.03l-0.65-40.28l-1.61,0.03
		c-2.48,0.04-4.25-0.41-5.32-1.35c-1.07-0.94-1.62-2.18-1.64-3.72c-0.02-1.54,0.48-2.8,1.52-3.77c1.04-0.97,2.8-1.48,5.27-1.52
		l48.47-0.74l0.26,15.72c0.04,2.44-0.41,4.2-1.35,5.27c-0.94,1.07-2.18,1.62-3.72,1.64c-1.51,0.02-2.75-0.47-3.72-1.5
		c-0.97-1.02-1.48-2.77-1.52-5.25l-0.09-5.42l-26.27,0.43l0.24,14.92l9.04-0.15c-0.04-2.68,0.18-4.41,0.67-5.18
		c1.01-1.66,2.47-2.5,4.38-2.53c1.51-0.02,2.75,0.48,3.72,1.52c0.97,1.04,1.48,2.8,1.52,5.28l0.19,11.85
		c0.04,2.48-0.41,4.25-1.35,5.32c-0.94,1.07-2.18,1.62-3.72,1.64c-1.88,0.03-3.35-0.77-4.41-2.39c-0.52-0.76-0.79-2.5-0.84-5.21
		L269.79,43.8z"/>
	<path d="M369.5,46.41c-1.19,9.06-5.05,16.23-11.6,21.51c-6.55,5.27-13.61,7.41-21.18,6.42c-6.81-0.89-12.62-4.2-17.44-9.93
		c-5.96-7.09-8.29-15.59-7-25.48c1.3-9.89,5.74-17.52,13.33-22.88c6.13-4.3,12.6-6,19.41-5.11c7.57,0.99,13.84,4.88,18.82,11.66
		C368.8,29.37,370.69,37.31,369.5,46.41z M359.29,45.07c0.81-6.21-0.39-11.59-3.61-16.15c-3.22-4.56-7.22-7.15-12-7.78
		c-4.75-0.62-9.26,0.86-13.55,4.46c-4.29,3.59-6.83,8.48-7.64,14.65c-0.81,6.18,0.4,11.54,3.62,16.1c3.22,4.56,7.2,7.15,11.95,7.77
		c4.78,0.63,9.31-0.84,13.6-4.4C355.93,56.17,358.48,51.28,359.29,45.07z"/>
	<path d="M404.33,34.55l-10.52,38.88l21.43,5.8l2.54-9.41c0.65-2.39,1.57-3.97,2.77-4.74c1.2-0.77,2.54-0.95,4.03-0.55
		c1.45,0.39,2.5,1.22,3.15,2.49c0.65,1.27,0.65,3.1,0,5.49l-5.23,19.35l-47.08-12.74c-2.39-0.65-3.97-1.57-4.74-2.77
		c-0.77-1.2-0.95-2.54-0.55-4.03c0.39-1.45,1.22-2.5,2.49-3.15c1.27-0.65,3.1-0.64,5.49,0l5.77,1.56l10.52-38.88l-5.77-1.56
		c-2.39-0.65-3.97-1.57-4.74-2.77c-0.77-1.2-0.95-2.54-0.55-4.03c0.4-1.49,1.24-2.55,2.51-3.2c1.27-0.65,3.1-0.64,5.49,0l21.51,5.87
		c2.39,0.65,3.97,1.56,4.75,2.74c0.77,1.18,0.96,2.51,0.56,4c-0.4,1.49-1.24,2.55-2.51,3.2c-1.27,0.65-3.1,0.64-5.49,0L404.33,34.55
		z"/>
	<path d="M475.91,59.25l-15.64,37.12l9.58,4.04c2.28,0.96,3.73,2.09,4.33,3.38c0.6,1.29,0.6,2.64,0,4.06
		c-0.58,1.39-1.55,2.32-2.89,2.79c-1.34,0.47-3.15,0.22-5.44-0.74L437.2,97.83c-2.28-0.96-3.73-2.09-4.33-3.38
		c-0.6-1.29-0.6-2.64-0.01-4.06c0.59-1.39,1.55-2.32,2.89-2.79c1.34-0.47,3.15-0.22,5.44,0.74l9.58,4.04l15.64-37.12l-9.58-4.04
		c-2.28-0.96-3.73-2.09-4.33-3.38c-0.6-1.29-0.6-2.64-0.01-4.06s1.57-2.36,2.91-2.83c1.34-0.47,3.16-0.22,5.44,0.74l28.63,12.12
		c2.28,0.96,3.73,2.08,4.34,3.35c0.61,1.27,0.61,2.62,0.02,4.04s-1.57,2.36-2.91,2.83c-1.34,0.47-3.16,0.22-5.44-0.74L475.91,59.25z
		"/>
	<path d="M545.05,119.06c-4.64,7.88-11.01,12.95-19.1,15.24c-8.09,2.28-15.43,1.49-22-2.39c-5.91-3.49-9.97-8.81-12.16-15.97
		c-2.7-8.86-1.52-17.59,3.55-26.19c5.07-8.6,12.14-13.87,21.23-15.82c7.33-1.55,13.95-0.58,19.86,2.91
		c6.58,3.88,10.82,9.91,12.74,18.1C551.08,103.11,549.71,111.15,545.05,119.06z M536.18,113.83c3.18-5.39,4.18-10.82,3.01-16.27
		c-1.18-5.46-3.84-9.41-7.99-11.86c-4.13-2.43-8.86-2.84-14.21-1.21c-5.35,1.63-9.61,5.12-12.77,10.49
		c-3.17,5.37-4.16,10.78-2.98,16.23c1.18,5.46,3.83,9.4,7.95,11.83c4.15,2.45,8.9,2.88,14.23,1.28
		C528.74,122.72,533,119.22,536.18,113.83z"/>
</g>
</svg>
