<?xml version="1.0" encoding="utf-8"?>
<!-- Generator: Adobe Illustrator 27.8.1, SVG Export Plug-In . SVG Version: 6.00 Build 0)  -->
<svg version="1.1" id="レイヤー_1" xmlns="http://www.w3.org/2000/svg" xmlns:xlink="http://www.w3.org/1999/xlink" x="0px"
	 y="0px" viewBox="0 0 325 120" style="enable-background:new 0 0 325 120;" xml:space="preserve">
<style type="text/css">
	.st0{fill:#FFFFFF;}
</style>
<g>
	<g>
		<path class="st0" d="M84.23,63.28l0.34-0.22c2.43,2.65,4.1,5.55,5.01,8.7c0.83,0.72,1.06,1.54,0.68,2.47
			c-0.84,2.72-2.62,4.55-5.35,5.48c-1.9,1.79-3.61,3.69-5.13,5.69c0.38,0.14,0.68,0,0.91-0.43c0.91-0.79,1.75-1.68,2.51-2.69
			l0.11,0.11c-0.38,0.57-0.57,1.15-0.57,1.72c0.46,0,0.8-0.29,1.03-0.86c-0.23,0.64-0.3,1.29-0.23,1.93c0.3,0.07,0.57-0.07,0.8-0.43
			c-0.46,0.5-0.84,1-1.14,1.5c0.76-0.14,1.37-0.64,1.82-1.5c0.76-1.29,1.82-1.97,3.19-2.04l0.11-0.43c-0.91,3.65-3,6.52-6.27,8.59
			l-0.57,0.86l-0.34-0.43l-1.37,0.97l-0.23-0.21L79.1,92.5l-0.23-0.21c-1.52,1.29-3.27,2.08-5.24,2.36
			c-0.38-0.14-0.68-0.36-0.91-0.64c-0.23,0.5-0.53,0.86-0.91,1.07c-1.98,0.64-3.69,0.39-5.13-0.75c-0.08,0.43-0.27,0.72-0.57,0.86
			c-2.43-1.29-4.94-2.43-7.52-3.44c0-0.21-0.15-0.46-0.46-0.75c-0.15,0.29-0.19,0.57-0.11,0.86L57.57,91l-0.34,0.43
			c-0.76-0.36-0.99-0.89-0.68-1.61v-0.43c0.53,0.29,0.72,0.82,0.57,1.61c0.23-0.79,0.68-1.36,1.37-1.72
			c-0.08-0.79,0.04-1.54,0.34-2.26l0.11,1.72c0.53,0.21,0.95,0.11,1.25-0.32c-0.68-0.5-0.99-1.11-0.91-1.83
			c1.52-1.29,2.2-2.94,2.05-4.94c0.38-0.71,1.03-1.14,1.94-1.29c1.52-1.5,3.23-3.02,5.13-4.57c1.9-1.54,2.47-3.56,1.71-6.07
			c-0.76-2.29-2.09-3.26-3.99-2.9c-0.46,0.29-0.61,0.64-0.46,1.07c-0.46-0.14-0.72,0.04-0.8,0.54c-0.99,0.43-1.94,0.9-2.85,1.4
			c-3.04,0.5-5.89,1.58-8.55,3.22c-3.95,3.01-7.41,6.38-10.37,10.1c0.15,2.43,0.8,4.66,1.94,6.66c0.61,2.08,1.21,4.16,1.82,6.23
			c0.53-0.43,0.72-1,0.57-1.72c0.61,1.15,1.03,2.29,1.25,3.44l1.37,1.18h-0.11v0.75l0.34-0.22c2.89,3.08,5.96,5.98,9.23,8.7
			c1.75,0.86,3.38,1.9,4.9,3.12c-1.22,0.72-1.75,1.72-1.59,3.01c-1.06,1.72-2.55,2.65-4.44,2.79c-1.52,0.5-3,1-4.44,1.5
			c-0.99-0.07-1.59,0.14-1.82,0.64c-0.38,0.07-0.68-0.07-0.91-0.43l-0.23,0.75l-0.23-0.32l-0.8,0.64c-0.08-0.14-0.19-0.29-0.34-0.43
			c-0.15,0.14-0.19,0.29-0.11,0.43c-1.06,0.21-1.98,0.11-2.73-0.32c-0.68-0.07-1.06-0.47-1.14-1.18c-1.06-1.22-2.2-2.36-3.42-3.44
			c-1.06-0.43-1.22-1.07-0.46-1.93l-4.79-4.83c-0.23-1.36-0.72-2.72-1.48-4.08c-0.53-0.21-0.84-0.68-0.91-1.4
			c-1.75-2.43-3.38-4.98-4.9-7.63h-0.8c-0.08-0.72-0.57-1.11-1.48-1.18c-1.22,0.14-2.24-0.18-3.08-0.97c-2.89-1.07-5.89-1.65-9-1.72
			c-2.36-0.93-4.8-1.81-7.35-2.63c-2.55-0.82-4.12-2.59-4.73-5.32c-0.38-1.65-0.95-3.22-1.71-4.73c-0.46-0.07-0.65-0.32-0.57-0.75
			c-0.61,0-0.91,0.29-0.91,0.86c0.3-0.93,0.49-1.93,0.57-3.01H0.38l0.57-0.54c-0.08,0.14-0.04,0.21,0.11,0.21
			c0.76-0.64,1.06-1.54,0.91-2.69c0.53-0.57,1.06-1.25,1.6-2.04c1.06,0.36,2.13,0.32,3.19-0.11c0.38,0.07,0.68-0.07,0.91-0.43
			l0.11-1.07l0.91,1.4c1.29,0.07,2.58-0.04,3.87-0.32v0.11c1.59,0.14,3.19,0.43,4.78,0.86c-0.91-2.15-1.33-4.33-1.25-6.55
			c-0.84-0.29-1.44-0.82-1.82-1.61l-0.23,0.11c-0.46-1.14-1.03-2.26-1.71-3.33c0.07-1.36-0.3-2.61-1.14-3.76
			c-1.22-3.72-2.51-7.45-3.87-11.17h0.23c-0.23-0.22-0.34-0.5-0.34-0.86c6.08-1.36,12.08-0.97,18,1.18c1.75,0.5,2.96,1.54,3.65,3.12
			c1.29,0.14,2.35,0.68,3.19,1.61c1.29,3.58,1.86,7.23,1.71,10.96c0.61-0.43,1.06-1,1.37-1.72c0.46,0.14,1.03,0,1.71-0.43l1.03-1.18
			v0.32c0.61,0.07,1.03-0.25,1.25-0.97l0.23,0.32c0.53-0.29,0.91-0.75,1.14-1.4c-0.23,0.72-0.46,1.4-0.68,2.04
			c0,0.36-0.04,0.29-0.11-0.22l-0.46,0.43c0-0.07-0.04-0.14-0.11-0.21c-0.46-0.07-0.72,0.11-0.8,0.54c0.15,0.5-0.04,0.9-0.57,1.18
			v-0.32c-0.84,0.21-1.1,0.61-0.8,1.18c3.19-0.64,5.47-2.26,6.84-4.83l-0.23-0.21c1.29,0,2.43-0.39,3.42-1.18v-0.75
			c-2.96-2.15-4.94-4.91-5.93-8.27c0-2.36,0.91-4.47,2.73-6.34c0.46,0.14,0.91,0.04,1.37-0.32v-0.11c4.79-1.5,9.42-1.07,13.9,1.29
			c1.14,0.29,2.01,0.9,2.62,1.83l0.34-0.32c0,1,0.42,1.43,1.25,1.29l0.11,0.22c-0.53,0.86-0.42,1.68,0.34,2.47
			c-0.08,2.94-1.18,5.55-3.3,7.84c1.9-0.14,3.8-0.22,5.7-0.22h0.46v-0.32h0.11v0.32c0.38-0.21,0.8-0.29,1.25-0.21
			c0.15,0,0.19-0.07,0.11-0.21L67.94,52l0.11-0.11l0.23,0.54c1.21,0.29,2.39,0.79,3.53,1.5l0.46-0.32c-0.15-0.29-0.42-0.43-0.8-0.43
			v-0.32c0.61,0.29,1.25,0.54,1.94,0.75l0.34-0.32l0.46,0.43l0.11-0.11l0.91,0.54c1.06,0.43,2.09,0.97,3.08,1.61
			c0.53,0.79,1.18,1.47,1.94,2.04l0.68,1.29l0.11-0.11c1.29,1.36,2.16,2.97,2.62,4.83L84,63.6c-0.3,0.29-0.28,0.48,0.06,0.59
			C84.4,64.3,84.46,64,84.23,63.28z M0.83,72.41l-0.34,0.11v-0.75c0.3,0.14,0.53,0.32,0.68,0.54C1.33,72.52,1.21,72.55,0.83,72.41z
			 M17.35,69.29c0-0.36-0.04-0.75-0.11-1.18c-0.15-0.36-0.42-0.64-0.8-0.86l-0.11-2.15c0.83,0.79,1.14,1.61,0.91,2.47v0.54v0.11
			c0.07,0,0.11,0.04,0.11,0.11c0.07-0.14,0.19-0.29,0.34-0.43v-0.32c0,0.14,0,0.25,0,0.32l-0.11,1.93L17.35,69.29z M17.81,70.58
			l0.23-0.11c0-0.29-0.08-0.54-0.23-0.75V70.58z M33.87,53.72v0.86l-1.25-4.83L33.87,53.72z M40.59,55.44c0-0.07-0.04,0-0.11,0.22
			L40.59,55.44z M42.76,54.9l0.11-0.75c-0.3,0.72-0.68,1.29-1.14,1.72h1.14l-1.14,0.86c-0.08-0.21,0-0.39,0.23-0.54
			c-0.76-0.07-1.03-0.23-0.8-0.48C41.39,55.46,41.92,55.19,42.76,54.9z M60.19,86.59l-0.23,0.43h0.34L60.19,86.59z M63.38,54.58
			l-0.34,0.43l0.46-0.22L63.38,54.58z M64.75,51.78h-0.46c0-0.43,0.27-0.64,0.8-0.64C65.01,51.43,64.9,51.64,64.75,51.78z
			 M64.63,52.64l0.91,0.22c-0.3,0.5-0.68,0.72-1.14,0.64L64.63,52.64z M66.46,50.5H66v-0.32c0.15,0,0.3,0.04,0.46,0.11V50.5z
			 M69.76,51.89l0.91,0.54C70.14,52.57,69.84,52.39,69.76,51.89z M76.6,55.65l0.34,0.21l-0.57-0.43L76.6,55.65z M77.74,60.27
			l0.46,0.97v-0.32L77.74,60.27z M80.24,58.66l-0.91-0.86C79.33,58.37,79.63,58.66,80.24,58.66z M84,87.88l-0.8-0.43
			C82.98,87.95,83.24,88.09,84,87.88z M84.46,84.44c-0.08,0.14-0.08,0.18,0,0.11v-0.22V84.44z M91.29,72.95l0.34,0.64
			C91.26,73.59,91.14,73.38,91.29,72.95z"/>
		<path class="st0" d="M125.47,99.59c-0.23,0.57-0.23,0.36,0-0.64V99.59z M125.47,92.28l0.46,1.5c-0.46-1.43-0.38-2.45,0.23-3.06
			C126.76,90.12,126.54,90.64,125.47,92.28z M125.59,90.89v-0.75l0.11,0.75H125.59z M126.95,98.62l-0.57,1.29
			c-0.3-1.65-0.44-2.69-0.4-3.12C126.02,96.37,126.34,96.98,126.95,98.62z M126.84,99.27v-0.43c-0.68-3.01-0.49-5.91,0.57-8.7
			l0.34-0.86l0.46,0.43c0.76-0.57,1.21-1.32,1.37-2.26c-0.23-0.43-0.53-0.54-0.91-0.32l2.28-3.01l-0.8,1.61
			c0.91-0.79,1.59-1.79,2.05-3.01c-0.08,0.29,0,0.54,0.23,0.75c0.3-0.07,0.61-0.29,0.91-0.64l-0.34-0.21
			c0.99-0.07,1.48-0.75,1.48-2.04c0-0.36,0.23-0.64,0.68-0.86c-0.46,0.72-0.53,1.43-0.23,2.15c1.14-0.93,1.97-2.15,2.51-3.65
			c0.3,0.29,0.27,0.57-0.11,0.86c-0.08,0.14-0.04,0.25,0.11,0.32c0.46,0.07,0.72-0.18,0.8-0.75v-0.43l0.34,0.43
			c0.53-0.36,0.72-0.82,0.57-1.4l0.57,0.75c0.23-0.14,0.34-0.36,0.34-0.64v0.21c0.46,0.07,0.87-0.07,1.25-0.43l0.11-0.86
			c1.21-0.22,2.51-0.61,3.87-1.18c1.59-0.07,2.81-0.72,3.65-1.93c1.29,0.72,2.35,0.57,3.19-0.43c0.53-2,0.49-4.12-0.11-6.34
			c-1.9-0.43-3.76-0.93-5.58-1.5c-6.99-3.65-12.19-8.74-15.61-15.25c0.46-3.58,2.51-6.23,6.15-7.95c3.49-1.22,6.91-2.65,10.25-4.3
			c-0.99-2.94-1.86-5.91-2.62-8.92c4.79,0,8.96,1.43,12.53,4.3c0.76,1.5,1.94,2.11,3.53,1.83c3.19-0.5,6.42-0.79,9.68-0.86
			c0.99,0.14,1.94-0.07,2.85-0.64c0.53,0.5,1.21,0.72,2.05,0.64c0.76,0.07,1.37,0.47,1.82,1.18c2.58,2.22,4.97,4.62,7.18,7.2
			c1.06,1.22,1.21,2.4,0.46,3.54c-0.3,1.58-0.68,3.12-1.14,4.62c-4.18,4.08-8.66,7.73-13.44,10.96l0.46,3.76
			c-0.46,0-0.65,0.18-0.57,0.54l0.57,7.09c3.26,0.57,6.49,1.43,9.68,2.58c8.05,3.58,13.97,9.1,17.77,16.54
			c0.91,1.07,1.78,2.19,2.62,3.33l-0.34,0.32l-0.23-0.32c0.07,0.57-0.04,1-0.34,1.29c-0.53,1.79-0.57,3.51-0.11,5.16
			c-0.53,1-1.25,1.72-2.16,2.15c-1.59,0.22-2.96-0.14-4.1-1.07c-1.52-2.15-2.32-4.51-2.39-7.09c-0.3-2.65-1.14-5.16-2.51-7.52
			c-4.03-5.44-9.38-8.88-16.06-10.31v0.43h-0.11c0-0.29-0.15-0.46-0.46-0.54c-0.99,0.93-1.44,2.11-1.37,3.55
			c-0.38,2.79-0.68,5.59-0.91,8.38c-1.06,4.8-2.43,9.49-4.1,14.07c-1.06,2.29-2.05,4.55-2.96,6.77l-0.46-0.11
			c-1.44,1.72-3.11,3.08-5.01,4.08c-0.76,0.79-1.67,1.29-2.73,1.5c-1.59,1.29-3.34,1.93-5.24,1.93c-0.53,0.21-0.72,0.54-0.57,0.97
			c-0.76,0-1.44,0.11-2.05,0.32l-0.23-0.43c0.07,0,0.15-0.07,0.23-0.21c-0.3-0.29-0.65-0.36-1.03-0.22l-0.8,0.54
			c0.07-0.29,0-0.54-0.23-0.75c-0.46,0.21-0.91,0.32-1.37,0.32l0.57-0.54c-0.23-0.43-0.57-0.64-1.03-0.64
			c-0.99,0.5-1.98,0.46-2.96-0.11c-0.76-0.22-1.37-0.57-1.82-1.07c-0.38-0.14-0.72-0.21-1.03-0.21c0.07-0.21,0.11-0.47,0.11-0.75
			c0.83,0.21,1.56,0,2.16-0.64c0-0.72-0.23-1.32-0.68-1.83c-0.46,0.14-0.84,0.29-1.14,0.43c-0.3-0.43-0.68-0.82-1.14-1.18
			c-0.15,0.14-0.19,0.25-0.11,0.32h-0.34c0.07-0.57-0.23-0.97-0.91-1.18h-0.46c-0.23,0.57-0.23,1.11,0,1.61l0.34-0.43l0.91,0.54
			c-1.44-0.07-2.2-1-2.28-2.79c-0.3,0.5-0.46,1-0.46,1.5c-0.61-0.22-1.03-0.64-1.25-1.29l-0.11,0.21l-0.46-2.04l-0.8,0.43
			c0-0.22-0.08-0.43-0.23-0.64c-0.15,0.43-0.38,0.79-0.68,1.07c0.23-0.71,0.23-1.43,0-2.15h-0.11v-0.32h0.11
			c0,0.14,0.07,0.25,0.23,0.32c0.46-0.21,0.46-0.61,0-1.18l-0.68,0.75c-0.3-1-0.38-2-0.23-3.01l-0.68-0.32
			c0.15,0,0.3-0.11,0.46-0.32c-0.68-0.5-1.06-1.22-1.14-2.15l-0.46,0.11l0.11-0.97c-0.08,0.14,0.02,0.16,0.29,0.05
			C127.39,99.75,127.3,99.55,126.84,99.27z M127.18,101.2v0.64h-0.23v-0.64H127.18z M128.09,101.2h-0.23v0.64h0.23V101.2z
			 M129.92,101.2l-0.23-1.07c-0.15,1.36-0.3,2.69-0.46,3.98c0.53,0,0.76-0.27,0.68-0.81C129.84,102.76,129.84,102.06,129.92,101.2z
			 M132.65,109.79v-0.32l-0.23-0.43L132.65,109.79z M135.95,113.23l-0.34-0.32h0.34V113.23z M137.21,93.25l-0.68,1.07
			c-1.37,3.58-0.91,7.09,1.37,10.53h0.34c-0.08-0.29-0.04-0.57,0.11-0.86c0.76,1.29,1.56,2.58,2.39,3.87
			c1.21,0.79,2.62,1.22,4.22,1.29v0.22c1.97-1.07,3.87-2.33,5.7-3.76c0.83,0.07,1.29-0.36,1.37-1.29c-0.15,0.57-0.46,0.93-0.91,1.07
			c0.15-0.5,0.34-1.07,0.57-1.72c-0.15-1.79,0.3-3.54,1.37-5.26l-0.11,1.83v0.11v0.64h0.11c-0.15-0.14-0.19-0.36-0.11-0.64v-0.11
			c0.15-0.57,0.3-1.18,0.46-1.83v-0.22v-0.21v0.21v0.22c-0.08,0.07-0.15,0.11-0.23,0.11c-0.15-0.29-0.19-0.61-0.11-0.97
			c0.68-2.29,1.1-4.69,1.25-7.2h0.11v-2.04c0-1.72,0.11-3.44,0.34-5.16c-0.53-1.15-0.76-2.4-0.68-3.76l-0.23-0.54
			c-1.29,0.07-2.43,0.39-3.42,0.97l-0.23-0.32c-0.3,0.57-0.72,0.82-1.25,0.75c-3.95,2.15-7.37,4.8-10.25,7.95
			c-0.3,0.86-0.67,1.61-1.08,2.26C137.19,91.1,137.05,92.03,137.21,93.25z M141.88,112.27l0.23-0.21c0-0.43-0.27-0.61-0.8-0.54
			C141.16,112.02,141.35,112.27,141.88,112.27z M149.28,118.82l-0.23-0.11c0.07-0.29,0.3-0.47,0.68-0.54c-0.3,0.29-0.3,0.47,0,0.54
			c1.29-0.07,2.51-0.39,3.65-0.97c-1.06,0.79-1.92,1.14-2.56,1.07C150.18,118.75,149.66,118.75,149.28,118.82z M154.98,116.13
			l0.11-0.32h0.11C155.21,116.02,155.13,116.13,154.98,116.13z M157.37,115.92l-1.14,0.32l1.37-0.75L157.37,115.92z M162.04,95.72
			v-0.21v0.54C162.27,95.97,162.27,95.87,162.04,95.72z M184.72,68.44l-1.25-1.72c0-1.15,0.49-1.9,1.48-2.26
			c0.23-1.72,0.53-3.47,0.91-5.26c2.89-3.44,6.61-5.34,11.17-5.69h2.16c0.99,0.36,1.97,0.79,2.96,1.29l0.46-0.43
			c-0.15,0.57,0.07,0.9,0.68,0.97c3.95,2.44,6.34,5.8,7.18,10.1c0.3,3.8-0.91,6.95-3.65,9.45c-1.67,0.36-3.3,0.82-4.9,1.4
			c-1.22,0.14-2.28-0.11-3.19-0.75c-2.05-0.36-3.91-0.07-5.58,0.86c-2.43-0.5-4.12-1.47-5.07-2.9
			C187.13,72.05,186.01,70.37,184.72,68.44z"/>
		<path class="st0" d="M317.56,63.28l0.34-0.22c2.43,2.65,4.1,5.55,5.01,8.7c0.83,0.72,1.06,1.54,0.68,2.47
			c-0.84,2.72-2.62,4.55-5.35,5.48c-1.9,1.79-3.61,3.69-5.13,5.69c0.38,0.14,0.68,0,0.91-0.43c0.91-0.79,1.75-1.68,2.51-2.69
			l0.11,0.11c-0.38,0.57-0.57,1.15-0.57,1.72c0.46,0,0.8-0.29,1.03-0.86c-0.23,0.64-0.3,1.29-0.23,1.93c0.3,0.07,0.57-0.07,0.8-0.43
			c-0.46,0.5-0.84,1-1.14,1.5c0.76-0.14,1.37-0.64,1.82-1.5c0.76-1.29,1.82-1.97,3.19-2.04l0.11-0.43c-0.91,3.65-3,6.52-6.27,8.59
			l-0.57,0.86l-0.34-0.43l-1.37,0.97l-0.23-0.21l-0.46,0.43l-0.23-0.21c-1.52,1.29-3.27,2.08-5.24,2.36
			c-0.38-0.14-0.68-0.36-0.91-0.64c-0.23,0.5-0.53,0.86-0.91,1.07c-1.98,0.64-3.69,0.39-5.13-0.75c-0.08,0.43-0.27,0.72-0.57,0.86
			c-2.43-1.29-4.94-2.43-7.52-3.44c0-0.21-0.15-0.46-0.46-0.75c-0.15,0.29-0.19,0.57-0.11,0.86L290.9,91l-0.34,0.43
			c-0.76-0.36-0.99-0.89-0.68-1.61v-0.43c0.53,0.29,0.72,0.82,0.57,1.61c0.23-0.79,0.68-1.36,1.37-1.72
			c-0.08-0.79,0.04-1.54,0.34-2.26l0.11,1.72c0.53,0.21,0.95,0.11,1.25-0.32c-0.68-0.5-0.99-1.11-0.91-1.83
			c1.52-1.29,2.2-2.94,2.05-4.94c0.38-0.71,1.03-1.14,1.94-1.29c1.52-1.5,3.23-3.02,5.13-4.57c1.9-1.54,2.47-3.56,1.71-6.07
			c-0.76-2.29-2.09-3.26-3.99-2.9c-0.46,0.29-0.61,0.64-0.46,1.07c-0.46-0.14-0.72,0.04-0.8,0.54c-0.99,0.43-1.94,0.9-2.85,1.4
			c-3.04,0.5-5.89,1.58-8.55,3.22c-3.95,3.01-7.41,6.38-10.37,10.1c0.15,2.43,0.8,4.66,1.94,6.66c0.61,2.08,1.21,4.16,1.82,6.23
			c0.53-0.43,0.72-1,0.57-1.72c0.61,1.15,1.03,2.29,1.25,3.44l1.37,1.18h-0.11v0.75l0.34-0.22c2.89,3.08,5.96,5.98,9.23,8.7
			c1.75,0.86,3.38,1.9,4.9,3.12c-1.22,0.72-1.75,1.72-1.59,3.01c-1.06,1.72-2.55,2.65-4.44,2.79c-1.52,0.5-3,1-4.44,1.5
			c-0.99-0.07-1.59,0.14-1.82,0.64c-0.38,0.07-0.68-0.07-0.91-0.43l-0.23,0.75l-0.23-0.32l-0.8,0.64c-0.08-0.14-0.19-0.29-0.34-0.43
			c-0.15,0.14-0.19,0.29-0.11,0.43c-1.06,0.21-1.98,0.11-2.73-0.32c-0.68-0.07-1.06-0.47-1.14-1.18c-1.06-1.22-2.2-2.36-3.42-3.44
			c-1.06-0.43-1.22-1.07-0.46-1.93l-4.79-4.83c-0.23-1.36-0.72-2.72-1.48-4.08c-0.53-0.21-0.84-0.68-0.91-1.4
			c-1.75-2.43-3.38-4.98-4.9-7.63h-0.8c-0.08-0.72-0.57-1.11-1.48-1.18c-1.22,0.14-2.24-0.18-3.08-0.97c-2.89-1.07-5.89-1.65-9-1.72
			c-2.36-0.93-4.8-1.81-7.35-2.63c-2.55-0.82-4.12-2.59-4.73-5.32c-0.38-1.65-0.95-3.22-1.71-4.73c-0.46-0.07-0.65-0.32-0.57-0.75
			c-0.61,0-0.91,0.29-0.91,0.86c0.3-0.93,0.49-1.93,0.57-3.01h-0.23l0.57-0.54c-0.08,0.14-0.04,0.21,0.11,0.21
			c0.76-0.64,1.06-1.54,0.91-2.69c0.53-0.57,1.06-1.25,1.6-2.04c1.06,0.36,2.13,0.32,3.19-0.11c0.38,0.07,0.68-0.07,0.91-0.43
			l0.11-1.07l0.91,1.4c1.29,0.07,2.58-0.04,3.87-0.32v0.11c1.59,0.14,3.19,0.43,4.78,0.86c-0.91-2.15-1.33-4.33-1.25-6.55
			c-0.84-0.29-1.44-0.82-1.82-1.61l-0.23,0.11c-0.46-1.14-1.03-2.26-1.71-3.33c0.07-1.36-0.3-2.61-1.14-3.76
			c-1.22-3.72-2.51-7.45-3.87-11.17h0.23c-0.23-0.22-0.34-0.5-0.34-0.86c6.08-1.36,12.08-0.97,18,1.18c1.75,0.5,2.96,1.54,3.65,3.12
			c1.29,0.14,2.35,0.68,3.19,1.61c1.29,3.58,1.86,7.23,1.71,10.96c0.61-0.43,1.06-1,1.37-1.72c0.46,0.14,1.03,0,1.71-0.43l1.03-1.18
			v0.32c0.61,0.07,1.03-0.25,1.25-0.97l0.23,0.32c0.53-0.29,0.91-0.75,1.14-1.4c-0.23,0.72-0.46,1.4-0.68,2.04
			c0,0.36-0.04,0.29-0.11-0.22l-0.46,0.43c0-0.07-0.04-0.14-0.11-0.21c-0.46-0.07-0.72,0.11-0.8,0.54c0.15,0.5-0.04,0.9-0.57,1.18
			v-0.32c-0.84,0.21-1.1,0.61-0.8,1.18c3.19-0.64,5.47-2.26,6.84-4.83l-0.23-0.21c1.29,0,2.43-0.39,3.42-1.18v-0.75
			c-2.96-2.15-4.94-4.91-5.93-8.27c0-2.36,0.91-4.47,2.73-6.34c0.46,0.14,0.91,0.04,1.37-0.32v-0.11c4.79-1.5,9.42-1.07,13.9,1.29
			c1.14,0.29,2.01,0.9,2.62,1.83l0.34-0.32c0,1,0.42,1.43,1.25,1.29l0.11,0.22c-0.53,0.86-0.42,1.68,0.34,2.47
			c-0.08,2.94-1.18,5.55-3.3,7.84c1.9-0.14,3.8-0.22,5.7-0.22h0.46v-0.32h0.11v0.32c0.38-0.21,0.8-0.29,1.25-0.21
			c0.15,0,0.19-0.07,0.11-0.21L301.27,52l0.11-0.11l0.23,0.54c1.21,0.29,2.39,0.79,3.53,1.5l0.46-0.32
			c-0.15-0.29-0.42-0.43-0.8-0.43v-0.32c0.61,0.29,1.25,0.54,1.94,0.75l0.34-0.32l0.46,0.43l0.11-0.11l0.91,0.54
			c1.06,0.43,2.09,0.97,3.08,1.61c0.53,0.79,1.18,1.47,1.94,2.04l0.68,1.29l0.11-0.11c1.29,1.36,2.16,2.97,2.62,4.83l0.34-0.21
			c-0.3,0.29-0.28,0.48,0.06,0.59C317.73,64.3,317.79,64,317.56,63.28z M234.16,72.41l-0.34,0.11v-0.75
			c0.3,0.14,0.53,0.32,0.68,0.54C234.66,72.52,234.54,72.55,234.16,72.41z M250.68,69.29c0-0.36-0.04-0.75-0.11-1.18
			c-0.15-0.36-0.42-0.64-0.8-0.86l-0.11-2.15c0.83,0.79,1.14,1.61,0.91,2.47v0.54v0.11c0.07,0,0.11,0.04,0.11,0.11
			c0.07-0.14,0.19-0.29,0.34-0.43v-0.32c0,0.14,0,0.25,0,0.32l-0.11,1.93L250.68,69.29z M251.14,70.58l0.23-0.11
			c0-0.29-0.08-0.54-0.23-0.75V70.58z M267.2,53.72v0.86l-1.25-4.83L267.2,53.72z M273.92,55.44c0-0.07-0.04,0-0.11,0.22
			L273.92,55.44z M276.09,54.9l0.11-0.75c-0.3,0.72-0.68,1.29-1.14,1.72h1.14l-1.14,0.86c-0.08-0.21,0-0.39,0.23-0.54
			c-0.76-0.07-1.03-0.23-0.8-0.48C274.72,55.46,275.25,55.19,276.09,54.9z M293.52,86.59l-0.23,0.43h0.34L293.52,86.59z
			 M296.71,54.58l-0.34,0.43l0.46-0.22L296.71,54.58z M298.08,51.78h-0.46c0-0.43,0.27-0.64,0.8-0.64
			C298.34,51.43,298.23,51.64,298.08,51.78z M297.96,52.64l0.91,0.22c-0.3,0.5-0.68,0.72-1.14,0.64L297.96,52.64z M299.79,50.5
			h-0.46v-0.32c0.15,0,0.3,0.04,0.46,0.11V50.5z M303.09,51.89l0.91,0.54C303.47,52.57,303.16,52.39,303.09,51.89z M309.93,55.65
			l0.34,0.21l-0.57-0.43L309.93,55.65z M311.07,60.27l0.46,0.97v-0.32L311.07,60.27z M313.57,58.66l-0.91-0.86
			C312.66,58.37,312.96,58.66,313.57,58.66z M317.33,87.88l-0.8-0.43C316.31,87.95,316.57,88.09,317.33,87.88z M317.79,84.44
			c-0.08,0.14-0.08,0.18,0,0.11v-0.22V84.44z M324.62,72.95l0.34,0.64C324.58,73.59,324.47,73.38,324.62,72.95z"/>
	</g>
	<g>
		<path class="st0" d="M42.1,13.47l0.38-1.02c-0.73-0.33-1.26-0.77-1.58-1.31c0.4-0.04,0.8-0.14,1.21-0.29
			c0.58-0.12,1.17-0.23,1.77-0.35l-0.23-0.09c0.33,0.04,0.63-0.03,0.9-0.2c0.93,0.14,1.8,0.45,2.6,0.93
			c0.05-0.33,0.07-0.68,0.07-1.05L47,10.3c0.15-0.72,0.28-1.45,0.38-2.18c-0.2-0.02-0.25-0.14-0.15-0.35l0.08,0.06
			c0-0.15-0.06-0.32-0.19-0.49L47,7.42c0.02,0-0.03-0.02-0.15-0.06c0.05-0.15,0.18-0.24,0.38-0.26c-0.03-0.21-0.06-0.44-0.11-0.67
			C47.06,6.49,47,6.51,46.92,6.49V6.37C46.95,6.35,46.97,6.36,47,6.4c-0.03-0.18-0.05-0.36-0.08-0.55l-0.11-0.46H46.7
			c-0.2-1.05-0.43-2.1-0.68-3.17c0.2-0.39,0.46-0.76,0.79-1.11c0.25,0.17,0.46,0.18,0.64,0.03c0.15,0.04,0.29,0.03,0.41-0.03
			c1.48,0.43,2.88,1.01,4.18,1.75c0.63,0.33,1.12,0.75,1.47,1.25L54,4.39c0-0.02,0.03-0.04,0.08-0.06c0.18,0.14,0.19,0.29,0.04,0.47
			c-0.15,0.72-0.25,1.43-0.3,2.15V6.4c-0.23,0.35-0.33,0.7-0.3,1.05c0.7-0.39,1.39-0.8,2.07-1.25c1.91-0.83,3.83-1.67,5.76-2.5
			l2.86-0.26c2.76,0.95,4.55,2.55,5.35,4.8c0.23,0.74,0.29,1.46,0.19,2.18c1.11-0.14,2.11,0.05,3.01,0.55
			c-0.15,0.27-0.38,0.49-0.68,0.67c-0.28,0.04-0.52-0.03-0.72-0.2c-0.6,0.06-1.19,0.14-1.77,0.26c0.1,0.52-0.03,0.98-0.38,1.37
			c-0.07,0.37-0.15,0.72-0.23,1.05c0.15,0,0.24-0.09,0.26-0.26c-0.05,0.27-0.15,0.53-0.3,0.79c-0.3,0.37-0.39,0.76-0.26,1.16
			c-0.05,0.56-0.05,1.12,0,1.66c0.38-0.33,0.56-0.73,0.56-1.19c-0.07-0.7-0.01-1.4,0.19-2.09v0.29h-0.04
			c0.05,0.56,0.01,1.12-0.11,1.66l0.08,0.52c-0.13,0.04-0.15,0.08-0.08,0.12c-0.03,0.14-0.04,0.27-0.04,0.41
			c-0.23-0.02-0.34,0.07-0.34,0.26v0.09c-0.07-0.06-0.13-0.06-0.15,0c-0.05,0.39-0.14,0.76-0.26,1.11c0.1,0.19,0.06,0.38-0.11,0.55
			l0.08,0.81c0.12-0.15,0.28-0.33,0.45-0.52c0.15-0.41,0.18-0.81,0.08-1.22c-0.05,0.16-0.13,0.28-0.23,0.38
			c0.18-0.25,0.3-0.53,0.38-0.84c-0.05,0.18-0.08,0.34-0.08,0.49c0.15-0.1,0.26-0.23,0.34-0.41c0.18,0.81-0.06,1.48-0.72,2.01
			c-0.3,0.39-0.4,0.79-0.3,1.19c0.3-0.37,0.63-0.75,0.98-1.13v-0.09c0.05,0.23,0.02,0.47-0.08,0.7c-0.05,0.47-0.3,0.81-0.75,1.05
			c-0.18,0.14-0.34,0.27-0.49,0.41l-0.11-0.06c-0.45,0.25-0.93,0.44-1.43,0.55c-0.18,0.04-0.3,0-0.38-0.12
			c-0.85,0.43-1.73,0.8-2.64,1.11l0.26-0.18c-0.98-0.04-1.93-0.2-2.86-0.49c-0.4-0.21-0.83-0.33-1.28-0.35
			c-0.38-0.33-0.77-0.64-1.17-0.93l-0.07,0.06c-0.1-0.04-0.13-0.09-0.07-0.14L58,21.09l-0.08,0.12c-0.2-0.27-0.34-0.56-0.41-0.87
			l-0.04,0.06c-0.1-0.43-0.23-0.85-0.38-1.28c0.1-0.27,0.1-0.56,0-0.87c-0.05,0.16-0.14,0.26-0.26,0.32l0.11-1.51
			c-0.03,0.06,0,0.1,0.08,0.12c0.13-0.1,0.15-0.2,0.07-0.32c-0.1-0.06-0.1-0.14,0-0.23c-0.05-0.27,0.04-0.5,0.26-0.7
			c0.07-0.19,0.06-0.39-0.04-0.58l-0.11,0.12c0.05-0.39,0.26-0.76,0.64-1.11c0.13-0.08,0.26-0.16,0.41-0.26
			c0.05-0.23,0.21-0.43,0.49-0.58l0.34,0.03c-0.03-0.1,0.03-0.17,0.15-0.23c-0.07,0.12-0.1,0.22-0.07,0.32l0.23-0.2l-0.07-0.03
			l0.11-0.03c-0.05,0.04-0.06,0.08-0.04,0.12c0,0.04,0.02,0.05,0.07,0.03c0.05-0.06,0.08-0.14,0.08-0.23l0.04,0.15
			c0.08-0.02,0.13-0.07,0.15-0.15c0.13-0.33,0.41-0.54,0.87-0.64c1.05-0.74,2.29-1.23,3.69-1.48c0.4,0,0.82-0.04,1.24-0.12
			c0.13-0.27,0.13-0.55,0-0.84c-0.05-1.03-0.2-2.05-0.45-3.06c-1.41,0.1-2.51,0.63-3.32,1.6l-4.22,2.91l-0.19,0.29l-0.04-0.03
			c-0.75,0.87-1.78,1.34-3.09,1.4c-0.3-0.04-0.58-0.11-0.83-0.2c-0.13,0.56-0.2,1.12-0.23,1.66c0.1,0.39,0.08,0.77-0.07,1.13
			l0.15-0.12c0.02,0.99-0.03,1.96-0.15,2.91c0,0.25,0.04,0.48,0.11,0.7l0.04-0.2c0.05,0.29,0,0.56-0.15,0.81
			c0.05,0.33,0.05,0.65,0,0.96c-0.13,0.47-0.03,0.9,0.3,1.31c-0.55,0.19-1.04,0.45-1.47,0.76c-0.85-0.12-1.71-0.22-2.56-0.32
			c-0.73-0.08-1.44-0.19-2.15-0.35c-0.3-0.25-0.35-0.52-0.15-0.81c-0.15,0.06-0.24,0.03-0.26-0.09l0.11-0.26l0.23,0.15
			c0-0.18,0.07-0.32,0.23-0.44c-0.1-0.39-0.19-0.79-0.26-1.19c-0.25-0.29-0.3-0.62-0.15-0.99l-0.11,0.09l-0.04-0.7
			c-0.45,0.8-1.16,1.3-2.11,1.51c-0.5-0.04-0.94-0.18-1.32-0.44c-0.23-0.21-0.38-0.46-0.45-0.73c-0.45-0.16-0.65-0.42-0.6-0.79
			l-0.26,0.09c0-0.68-0.06-1.31-0.19-1.91C41.75,15.25,41.82,14.46,42.1,13.47z M47.22,13.76h-0.26c-1.08,0.81-1.81,1.77-2.18,2.88
			l0.15,0.09c0.65-0.45,1.34-0.88,2.07-1.31C47.2,14.9,47.27,14.34,47.22,13.76z M46.77,9.95v0.12L46.7,9.92L46.77,9.95z M46.77,9.4
			v-0.2h0.04v0.2H46.77z M46.96,14.69l0.11-0.29v0.23L46.96,14.69z M46.96,18.09L47,18.04c0.02-0.08,0.01-0.15-0.04-0.23V18.09z
			 M47,5.96l0.07,0.23V6.08L47,5.96z M47.26,19.43v-0.17c-0.1,0.17-0.09,0.3,0.02,0.39C47.39,19.74,47.39,19.67,47.26,19.43z
			 M47.3,8.93h-0.04v0.32h0.04V8.93z M47.3,9.8h-0.04v0.17h0.04V9.8z M47.94,13.27l-0.34,0.12c-0.13,0.19-0.13,0.36,0,0.49
			C47.77,13.72,47.89,13.52,47.94,13.27z M47.52,14.46c0.35,0.45,0.45,0.57,0.3,0.38c-0.15-0.19-0.23-0.44-0.23-0.73
			c0.05,0.02,0.11,0,0.19-0.06c-0.03-0.06,0.03-0.12,0.15-0.18c-0.1,0.1-0.14,0.19-0.11,0.29h0.15l-0.15,0.17h0.15L47.52,14.46z
			 M48.05,11.11c-0.25-0.14-0.33,0.01-0.23,0.44c-0.2-0.12-0.21-0.25-0.04-0.41L48.05,11.11z M48.09,19.67l0.08,0.06l0.11-0.12
			c-0.15-0.5-0.25-1.03-0.3-1.57l-0.15,0.06v-0.06c0.02-0.48,0.02-0.99,0-1.51l-0.15,0.15c0.05,0.81,0.06,1.61,0.04,2.39l0.15-0.03
			C48.06,19.2,48.14,19.41,48.09,19.67z M49.56,14.46l-0.15-0.14c-0.33,1.42-0.25,2.8,0.23,4.16l0.26-0.58
			c-0.05-0.21-0.09-0.44-0.11-0.67c-0.05,0.14-0.15,0.2-0.3,0.2l0.08-0.7c0.2-0.6,0.26-1.05,0.17-1.35
			C49.64,15.07,49.58,14.77,49.56,14.46z M49.71,18.91l0.26-0.58h-0.04C49.71,18.52,49.63,18.72,49.71,18.91z M50.12,10.97h-0.04
			v0.15h0.04V10.97z M50.42,21.76l-0.04-0.06l-0.15-0.06L50.42,21.76z M50.35,12.42l-0.08-0.03v0.47l0.08-0.03l0.07,0.35l0.07-0.03
			c0.18-0.27,0.18-0.54,0-0.81l0.08-0.09c0-0.04-0.02-0.04-0.06-0.02C50.48,12.26,50.42,12.32,50.35,12.42z M51.06,12.92l-0.34,0.44
			c0.07,0.21,0.07,0.42,0,0.61c0.07,0.83,0.11,1.66,0.11,2.47c0.08,0.54,0.06,1.08-0.04,1.6c-0.2,0.52-0.2,1.02,0,1.48
			c-0.05-0.21,0-0.41,0.15-0.58c0.1,0.16,0.18,0.3,0.23,0.44c0.1-0.23,0.14-0.48,0.11-0.76c0.03-0.66,0.03-1.33,0-2.01
			c0.08-0.62,0.14-1.26,0.19-1.92h0.15c0.03-0.25,0.06-0.52,0.11-0.81l0.04,0.06c0.2-0.45,0.18-0.88-0.07-1.31
			c-0.2-0.12-0.38-0.12-0.53,0c0-0.19-0.06-0.28-0.17-0.25C50.89,12.41,50.91,12.59,51.06,12.92z M51.03,13.21l0.53-0.52
			c-0.13,0.62-0.26,1.03-0.41,1.22C50.99,14.1,50.95,13.87,51.03,13.21z M51.29,11.43l-0.04-0.29l-0.08,0.44L51.29,11.43z
			 M51.55,10.21l-0.15,0.06c-0.03,0.21-0.06,0.43-0.11,0.64l0.19-0.58l0.11,0.18C51.59,10.41,51.58,10.31,51.55,10.21z M51.44,14.92
			H51.4v-0.14h0.04V14.92z M51.67,10.82l0.04-0.15c-0.13,0.14-0.17,0.23-0.13,0.29C51.61,11.03,51.64,10.98,51.67,10.82z
			 M51.74,13.41l0.04-0.44v-0.03L51.74,13.41z M51.89,18.62l0.04,0.18v-0.12L51.89,18.62z M52.08,16.06v0.18
			c-0.08,0.08-0.1,0.14-0.08,0.17c0.05-0.04,0.08-0.1,0.08-0.17c0.02-0.06,0.06-0.12,0.11-0.18c0.08-0.1,0.07-0.15-0.02-0.17
			C52.09,15.86,52.06,15.92,52.08,16.06z M52.01,17.05h0.04v-0.52h-0.04V17.05z M52.12,18.41v0.06
			C52.09,18.11,52.09,18.08,52.12,18.41z M52.27,15.53h-0.08l-0.04,0.12C52.23,15.65,52.27,15.61,52.27,15.53z M52.76,17.8v-0.15
			l-0.11,0.09L52.76,17.8z M52.76,17.51v-0.52l-0.04,0.55L52.76,17.51z M56.83,18.56l-0.04,0.14
			C56.77,18.67,56.78,18.62,56.83,18.56z M57.69,15.04l0.15-0.26C57.69,14.86,57.64,14.94,57.69,15.04z M58.07,15.48l-0.38-0.15
			c0.13,0.19,0.2,0.31,0.23,0.35S58,15.65,58.07,15.48z M58.67,13.73l0.15,0.09l0.19-0.2C58.86,13.61,58.75,13.65,58.67,13.73z
			 M65.68,13.82l-0.15-0.18c0.15-0.29,0.16-0.6,0.04-0.93c0.18-0.21,0.18-0.44,0-0.67c-0.45,0.14-0.9,0.25-1.36,0.35
			c-0.03,0.16-0.1,0.23-0.23,0.23v-0.14c-0.18,0.17-0.36,0.28-0.56,0.32v-0.18c-1.05,0.74-1.87,1.57-2.45,2.5
			c-0.05,0.23-0.13,0.46-0.23,0.67c-0.28,0.37-0.36,0.77-0.26,1.19c-0.43,0.68-0.56,1.39-0.41,2.12c0.15,0.56,0.38,1.11,0.68,1.63
			c0.45,0.04,0.89,0.13,1.32,0.26l0.04-0.06c0.2,0.06,0.44,0.04,0.72-0.06v0.06c0.25,0.04,0.46-0.02,0.64-0.18l-0.11-0.14
			c0.33-0.04,0.67-0.11,1.02-0.2c0.28-0.19,0.6-0.32,0.98-0.38v-0.12h0.04c0.1-0.15,0.09-0.3-0.04-0.44
			c0.03-0.18,0.08-0.36,0.15-0.55c0.02,0.04,0.04,0.08,0.04,0.12v0.06v0.03v-0.03v-0.06c0.15-0.15,0.16-0.31,0.04-0.47
			c0.28-0.39,0.33-0.8,0.15-1.25l0.11-0.06l-0.19-0.09l0.26-0.2c0.03-0.33-0.01-0.66-0.11-0.99c0.1-0.47,0.14-0.95,0.11-1.45
			c-0.05,0.14-0.09,0.26-0.11,0.38c-0.08,0.02-0.13,0-0.15-0.06c0.02-0.15-0.01-0.31-0.11-0.47C65.43,14.25,65.48,14.05,65.68,13.82
			z M62.4,23.07h0.34v-0.03C62.62,22.94,62.5,22.95,62.4,23.07z M65.72,17.66l-0.15,0.67l-0.07,0.06L65.72,17.66z M68.77,18.73
			l0.04,0.06l-0.04,0.03c-0.03-0.04-0.03-0.08,0-0.12C68.79,18.67,68.79,18.68,68.77,18.73z M68.84,14.08l0.07-0.03
			c0-0.08-0.04-0.15-0.11-0.2L68.84,14.08z M69.45,17.54v-0.12c0.05,0.15,0.04,0.25-0.02,0.29C69.37,17.76,69.37,17.7,69.45,17.54z"
			/>
		<path class="st0" d="M118.53,14.9l-0.49-0.87c-0.35-1.26-0.06-2.44,0.87-3.55c-0.05-0.06-0.06-0.13-0.04-0.2
			c0.28,0.02,0.55,0.09,0.83,0.2c0.05-0.14,0.13-0.27,0.23-0.41c-0.05,0.06-0.06,0.1-0.04,0.12c0.03,0.06,0.08,0.07,0.15,0.03
			c0.07-0.21,0.3-0.27,0.68-0.17c0.83,0.1,1.59,0.34,2.3,0.73c0.12-0.14,0.29-0.2,0.49-0.2c1.06-0.56,2.2-1.02,3.43-1.37
			c2.03-0.7,4.13-0.83,6.29-0.41c0.9,0.14,1.77,0.38,2.6,0.73c0.7,0.27,1.37,0.57,2,0.9l-0.11,0.06c0.9,0.78,1.78,1.57,2.64,2.39
			c-0.18-0.15-0.38-0.28-0.6-0.38c0.18,0.41,0.41,0.8,0.72,1.16l-0.19-0.03c0.35,0.58,0.59,1.19,0.72,1.83h0.15
			c0.02,0.23,0.06,0.47,0.11,0.7l-0.07,1.05c0.1,0.1,0.1,0.19,0,0.29l-0.04,0.03c0.02,0.06,0.1,0.09,0.23,0.09
			c0.02,0.21-0.04,0.42-0.19,0.61c-0.05,0-0.08-0.02-0.08-0.06l-0.11,0.06l0.07,0.03l-0.11,0.09V18.3
			c-0.08-0.02-0.14-0.01-0.19,0.03c0.08,0.1,0.2,0.14,0.38,0.14l-0.15,0.2l-0.04-0.09l-0.15,0.12c0,0.06,0.05,0.08,0.15,0.06
			c-0.35,0.35-0.68,0.7-0.98,1.05c-0.13,0.31-0.38,0.55-0.75,0.73l-0.6,0.18l-0.04-0.23c-0.33,0.08-0.6,0.22-0.83,0.44l-0.68,0.26
			c-0.96,0.08-1.9,0.1-2.83,0.06c-0.6-0.1-1.19-0.24-1.77-0.44c-0.55-0.27-0.97-0.63-1.24-1.08c0-0.93,0.51-1.62,1.53-2.07
			c1.02-0.45,1.94-0.95,2.77-1.51c0.23-0.8,0.04-1.58-0.56-2.36c0.13,0,0.26,0,0.41,0c0.02,0.1,0.09,0.14,0.19,0.12
			c-0.2-0.25-0.44-0.48-0.72-0.7c-0.13,0.04-0.23,0.09-0.3,0.15c0.02,0.1,0.02,0.17,0,0.23c-0.13-0.08-0.23-0.17-0.3-0.29
			c-1.33-0.14-2.57,0.01-3.73,0.44c-1.26,0.47-2.34,1.08-3.24,1.83c-0.68,0.6-1.53,0.91-2.56,0.93c-1.41,0.14-2.6,0.14-3.58,0
			C120.15,16.36,119.29,15.83,118.53,14.9z M135.45,13.32v-0.06l-0.38-0.29L135.45,13.32z"/>
		<path class="st0" d="M191.96,20.01l-0.08-0.61l0.11,0.06c0.02-0.37,0.16-0.73,0.41-1.08c0.25-0.27,0.35-0.58,0.3-0.93
			c0.4-0.78,0.94-1.51,1.62-2.21c-0.08-0.16-0.19-0.3-0.34-0.44c0.1,0.1,0.24,0.14,0.41,0.12c-0.2-0.64-0.5-1.26-0.9-1.86
			l-0.11,0.03c-0.25-0.37-0.4-0.76-0.45-1.16c-0.1-0.47-0.23-0.94-0.38-1.42c-0.07,0.08-0.15,0.11-0.23,0.09
			c-0.33-1.63-0.59-3.28-0.79-4.95c-0.18-1.18-0.2-2.38-0.07-3.58c0.1-0.52,0-1.02-0.3-1.48c0.5-0.17,1.02-0.37,1.54-0.58
			c0.4,0.1,0.8,0.12,1.21,0.06c0.8,0.48,1.7,0.88,2.67,1.18s1.73,0.82,2.26,1.56c-0.2,0.29-0.23,0.55-0.07,0.79
			c0.43,0.08,0.73,0.28,0.9,0.61c-0.45,2.09-0.5,4.19-0.15,6.28c-0.07,0.87,0,1.74,0.23,2.59c0.7-0.19,1.27-0.53,1.7-1.02
			c0.83-0.35,1.63-0.76,2.41-1.22c0.7-0.02,1.36,0.12,1.96,0.41l0.08-0.06c0.6,0.45,1.23,0.87,1.88,1.28
			c0.35,0.37,0.78,0.73,1.28,1.09c0.5,0.36,0.54,0.78,0.11,1.26c-0.88,0.43-1.81,0.77-2.79,1.02c-0.2-0.02-0.39,0.03-0.57,0.15
			c-0.43,0.14-0.84,0.26-1.24,0.38c-0.43,0.17-0.85,0.31-1.28,0.41c-0.65,0.43-1.32,0.82-2,1.19c-0.28,0.02-0.54,0.02-0.79,0
			l0.15,0.2c-0.23,0.04-0.34,0.16-0.34,0.35c-0.88,0.41-1.53,0.94-1.96,1.6c2.26,0.14,4.48-0.08,6.67-0.64
			c0.75,0.04,1.36,0.29,1.81,0.74c0.45,0.46,1.03,0.76,1.73,0.92c0.65,0.31,1.05,0.74,1.21,1.28c0.1,0.12,0.11,0.23,0.04,0.35
			c-0.3,0.35-0.67,0.54-1.09,0.58c-0.13,0.12-0.26,0.13-0.41,0.03c-0.25,0.48-0.68,0.71-1.3,0.67c-0.62-0.04-1.15,0.05-1.6,0.26
			c-0.78,0.04-1.54,0.12-2.3,0.23c-1.78,0.21-3.54,0.15-5.27-0.18c-2.31-0.06-4.09-0.81-5.35-2.27
			C192.38,21.38,192.21,20.69,191.96,20.01z M192.18,18.41l-0.08-0.03h-0.07l0.15-0.06c-0.05,0.06-0.07,0.11-0.06,0.14
			C192.14,18.51,192.16,18.49,192.18,18.41z M192.18,17.8l0.3-0.06c-0.2,0.14-0.33,0.24-0.38,0.32
			C192.05,18.14,192.08,18.06,192.18,17.8z M197.45,9.98l-0.07-0.12c-0.03,0.64-0.05,1.27-0.08,1.89c0.18,0.35,0.44,0.64,0.79,0.87
			c0-0.27-0.06-0.53-0.19-0.79c0.05-0.27,0.01-0.54-0.11-0.81c0,0.04-0.01,0.07-0.04,0.09c-0.15-0.33-0.23-0.69-0.23-1.08
			C197.45,10.21,197.43,10.19,197.45,9.98z"/>
		<path class="st0" d="M254.98,12.89h-0.11c0.07-1.07,0.02-2.14-0.15-3.23c-0.18-1.09,0.11-2.12,0.87-3.11
			c0.43-0.97,1.24-1.58,2.45-1.83c0.28-0.06,0.51-0.19,0.72-0.41c0.98-0.31,2.01-0.45,3.09-0.41c0.18-0.04,0.38-0.08,0.6-0.12
			c1.1-0.29,2.23-0.57,3.39-0.84c0.43,0.04,0.85,0,1.28-0.12c0.58,0.1,1.17,0.1,1.77,0c0.1,0.04,0.23,0.1,0.38,0.17
			c0.48,0,0.97,0.04,1.47,0.12l-0.08,0.06l0.11,0.06c0.02-0.02,0.06-0.03,0.11-0.03c-0.03,0.02-0.05,0.03-0.08,0.03
			c0.15,0.1,0.34,0.13,0.56,0.09v0.17l0.3-0.12c0.43,0.21,0.88,0.39,1.36,0.52c0.35,0.31,0.75,0.58,1.21,0.81l-0.19,0.09l0.19,0.09
			l0.15-0.23c0.05,0.15,0.18,0.25,0.38,0.29c0.03-0.02,0.08-0.03,0.15-0.03c-0.05,0.17,0.05,0.28,0.3,0.32l0.04-0.03l0.87,0.49
			c-0.13,0.45-0.01,0.83,0.34,1.16c0.68,0.35,0.97,0.84,0.87,1.48c0.3,3.24,0.25,3.73-0.15,1.48l0.23,0.03
			c-0.18,0.14-0.25,0.3-0.23,0.49c-0.03-0.04,0.13,1.65,0.45,5.06c-0.53-3.35-0.58-3.47-0.15-0.35l-0.45-2.79
			c-0.2-1.2-0.25-0.85-0.15,1.05l-0.3-2.59c-0.1,0.14-0.1,0.26,0,0.38l0.26-0.12h0.04v0.12h-0.04v-0.03c-0.15,0-0.24,0.05-0.26,0.15
			v0.03c0.03-0.1-0.01-0.16-0.11-0.2c0,0.29-0.1,0.47-0.3,0.52c0-0.02,0.02-0.04,0.07-0.06l0.19,1.22l-0.3,3.37
			c-0.23-3.3-0.23-5.02,0-5.18c-0.05-0.04-0.06-0.1-0.04-0.17h-0.23c-0.18-1.51-0.83-2.85-1.96-4.01c-0.63-0.64-1.42-1.14-2.37-1.51
			c-0.85-0.37-1.73-0.42-2.64-0.15l-0.23,0.18c1.03,0.78,2,1.6,2.9,2.47c0.58,0.39,0.77,0.82,0.56,1.31c0.13,0.7,0.33,1.37,0.6,2.01
			c0.05,1.3-0.6,2.81-1.96,4.54l-0.11-0.06l-0.07,0.06c-0.05-0.04-0.09-0.08-0.11-0.12c-1.05,1.78-2.05,3.59-2.98,5.41
			c-0.23,0.78-0.75,1.29-1.58,1.54c-0.95,0.04-1.91,0.05-2.86,0.03c-0.05-0.12-0.14-0.16-0.26-0.15c0.02-0.12-0.01-0.21-0.11-0.29
			l-0.04,0.12l-0.19-0.06c-0.03,0.14,0.05,0.22,0.23,0.26c-0.68,0.06-1.29-0.05-1.85-0.32h-0.45c-1.05-0.19-2-0.54-2.82-1.05
			c0.25-0.1,0.29-0.26,0.11-0.49c-0.23-0.06-0.41-0.05-0.56,0.03l0.11,0.38c-0.2-0.06-0.3-0.17-0.3-0.35l-0.08-0.03l-0.23,0.26
			c-0.1-0.19-0.23-0.37-0.38-0.52l-0.15,0.12l-0.15-0.23c-0.05,0.04-0.06,0.08-0.04,0.12l-0.15-0.09c-0.05,0.1-0.1,0.16-0.15,0.2
			l-0.11-0.09l-0.04,0.03c0.05-0.21,0.1-0.45,0.15-0.7c-0.33-0.62-0.45-1.28-0.38-1.98h0.07c0.03-0.47-0.05-0.92-0.23-1.37v0.47
			l-0.04-0.81c0.05,0,0.1-0.03,0.15-0.09c-0.03-0.04-0.06-0.08-0.11-0.12l-0.04,0.06v-0.18c0.02,0.02,0.06,0.04,0.11,0.06
			c0-0.72-0.07-1.43-0.23-2.15l0.11,0.09C255.04,13.37,255.03,13.14,254.98,12.89z M254.98,14.78c-0.03,0.1-0.05,0.06-0.08-0.12
			L254.98,14.78z M255.28,14.9l-0.07,0.06c0.02,0.14,0.01,0.26-0.04,0.38h0.11V14.9z M255.73,14.95V14.9v0.2
			c-0.13,0.37-0.1,0.71,0.07,1.02C255.76,15.75,255.73,15.36,255.73,14.95z M256.03,15.07l-0.08-0.12l-0.04,0.29L256.03,15.07z
			 M258.41,21.12l0.3,0.09c-0.33-0.23-0.57-0.36-0.73-0.38C257.81,20.81,257.96,20.91,258.41,21.12z M261.91,5.5l-0.23,0.44
			c-0.23,0.83-0.92,1.41-2.07,1.72c0,0.27,0.1,0.5,0.3,0.7c0.1,0.66,0.26,1.31,0.49,1.95c0.07,0.37,0.31,0.62,0.72,0.76
			c0.07,0.95,0.1,1.89,0.07,2.82c-0.18,0.29-0.28,0.59-0.3,0.9c0.07,1.14,0.41,2.22,1.02,3.23c0.5-0.23,0.73-0.61,0.68-1.13
			c0.15-0.04,0.21-0.14,0.19-0.29c-0.08-0.21-0.04-0.44,0.11-0.67c0.15-0.27,0.16-0.54,0.04-0.81c0.15-0.1,0.15-0.18,0-0.23
			c0.58-1.34,1.21-2.68,1.88-4.01c0.63-1.4,0.59-2.79-0.11-4.19c-0.25-0.17-0.44-0.38-0.56-0.61C263.38,5.86,262.64,5.67,261.91,5.5
			z M260.4,9.75h0.07v0.23h-0.07V9.75z M262.21,17.57l0.08-0.23v0.2L262.21,17.57z M277.13,22.11l-0.6-0.2
			c-0.28-0.15-0.5-0.36-0.68-0.61c0.33-0.45,0.45-0.93,0.38-1.46c-0.03-0.23,0-0.47,0.08-0.73c0.02-0.27,0.07-0.56,0.15-0.87
			l0.15-0.84l0.08,0.03c-0.03-0.14-0.01-0.29,0.04-0.47l-0.11-0.03c0.05,0,0.09-0.02,0.11-0.06v-0.06h-0.11l0.26-0.09l0.11,0.14
			c0.05-0.04,0.14-0.05,0.26-0.03l-0.07-0.26l-0.75-1.86l0.68,1.54c0.08,0.04,0.09,0.09,0.04,0.14c0,0.04,0.04,0.06,0.11,0.06
			c0.05-0.18,0.03-1.18-0.07-3.03l0.26,3.61l0.11-0.09c-0.15-2.42-0.09-2.28,0.19,0.44l-0.04,0.47l0.07-3.61l0.26,3.81l0.04-0.06
			c0.07-0.04,0.07,0.12,0,0.47c-0.15,0.43-0.18,0.86-0.07,1.31l-0.08-0.06c-0.05,0.08-0.03,0.14,0.08,0.18h-0.08
			c0.1,0.58,0.15,1.04,0.15,1.38C278.07,21.62,277.76,21.9,277.13,22.11z M276.41,12.89l0.04,0.12l-0.19-0.03L276.41,12.89z
			 M276.53,16.44l0.3-0.06c0.23-1.73,0.21-2.41-0.06-2.07C276.51,14.66,276.42,15.37,276.53,16.44z M276.53,11.32
			c0.07,3.14,0.19,4.08,0.34,2.82L276.53,11.32z M276.6,16.35l0.08-0.26h0.04L276.6,16.35z M276.71,14.25l0.3,0.47v1.05
			L276.71,14.25z M277.17,17.22v-0.12c-0.15,0.02-0.19,0.08-0.11,0.18c-0.05,0.04-0.06,0.08-0.04,0.12
			c0.02-0.02,0.04-0.06,0.04-0.12c0-0.02,0.02-0.05,0.07-0.09L277.17,17.22z M277.09,15.8c0,0.17,0,0.1,0-0.23V15.8z M277.17,10.36
			c-0.03,0.04-0.03,0.05,0,0.04C277.19,10.39,277.19,10.38,277.17,10.36z M277.28,15.68v-0.15h0.04v0.15H277.28z"/>
	</g>
</g>
</svg>
